<?xml version="1.0" encoding="utf-8"?>
<!-- Generator: Adobe Illustrator 16.0.0, SVG Export Plug-In . SVG Version: 6.00 Build 0)  -->
<!DOCTYPE svg PUBLIC "-//W3C//DTD SVG 1.1//EN" "http://www.w3.org/Graphics/SVG/1.1/DTD/svg11.dtd">
<svg version="1.1" id="Capa_1" xmlns="http://www.w3.org/2000/svg" xmlns:xlink="http://www.w3.org/1999/xlink" x="0px" y="0px"
	 width="63.75px" height="63.75px" viewBox="0 0 63.75 63.75" enable-background="new 0 0 63.75 63.75" xml:space="preserve">
<path fill-rule="evenodd" clip-rule="evenodd"  class="alimentacion" stroke="#FFFFFF" stroke-miterlimit="10" d="M31.299,53.447
	l-0.037,8.54c10.425-0.003,19.529-5.668,24.404-14.087l-7.414-4.238c-3.35,5.848-9.649,9.787-16.868,9.787
	C31.355,53.449,31.327,53.447,31.299,53.447z"/>
<path fill-rule="evenodd" clip-rule="evenodd" class="alimentacion" stroke="#FFFFFF" stroke-miterlimit="10" d="M31.247,61.987
	l-0.037-8.54c-7.192-0.063-13.451-4.037-16.758-9.896l-7.61,4.35C11.717,56.319,20.821,61.984,31.247,61.987z"/>
<path fill-rule="evenodd" clip-rule="evenodd" fill="#31B8DA" stroke="#FFFFFF" stroke-miterlimit="10" d="M6.834,47.888
	l7.574-4.417c-1.562-2.797-2.452-6.02-2.452-9.449c0-3.568,0.964-6.912,2.643-9.785l-7.765-4.529
	c-2.397,4.146-3.77,8.958-3.77,14.09C3.064,38.93,4.437,43.742,6.834,47.888z"/>
<path fill-rule="evenodd" clip-rule="evenodd" fill="#009CD2" stroke="#FFFFFF" stroke-miterlimit="10" d="M6.842,19.695l7.805,4.46
	c3.354-5.675,9.509-9.497,16.562-9.559l0.039-8.988C20.821,5.611,11.717,11.276,6.842,19.695z"/>
<path fill-rule="evenodd" clip-rule="evenodd" fill="#016A98" d="M33.677,1.762l0.038,8.987c0.028,0,0.056-0.001,0.084-0.001
	c7.08,0,13.276,3.79,16.671,9.451l7.611-4.35C53.206,7.43,44.102,1.765,33.677,1.762z"/>
<path fill-rule="evenodd" clip-rule="evenodd" fill="#00507D" stroke="#FFFFFF" stroke-miterlimit="10" d="M55.674,19.708
	l-7.573,4.416c1.722,2.899,2.71,6.283,2.71,9.898c0,3.477-0.915,6.74-2.516,9.563l7.379,4.303c2.397-4.146,3.77-8.958,3.77-14.09
	C59.443,28.666,58.071,23.853,55.674,19.708z"/>
</svg>
