<?xml version="1.0" encoding="utf-8"?>
<!-- Generator: Adobe Illustrator 16.0.0, SVG Export Plug-In . SVG Version: 6.00 Build 0)  -->
<!DOCTYPE svg PUBLIC "-//W3C//DTD SVG 1.1//EN" "http://www.w3.org/Graphics/SVG/1.1/DTD/svg11.dtd">
<svg version="1.1" id="Capa_1" xmlns="http://www.w3.org/2000/svg" xmlns:xlink="http://www.w3.org/1999/xlink" x="0px" y="0px"
	 width="53px" height="48px" viewBox="0 0 53 48" enable-background="new 0 0 53 48" xml:space="preserve">
<path fill="#7C7C7C" d="M34.742,28.654h4.721v4.721h-4.721V28.654z M13.5,28.654h4.721v4.721H13.5V28.654z M34.742,14.493h4.721
	v4.721h-4.721V14.493z M27.661,14.493h4.721v4.721h-4.721V14.493z M20.581,14.493h4.721v4.721h-4.721V14.493z M13.5,14.493h4.721
	v4.721H13.5V14.493z M34.742,21.574h4.721v4.72h-4.721V21.574z M13.5,21.574h4.721v4.72H13.5V21.574z M27.661,21.574h4.721v4.72
	h-4.721V21.574z M27.661,28.654h4.721v4.721h-4.721V28.654z M20.581,28.654h4.721v4.721h-4.721V28.654z M20.581,21.574h4.721v4.72
	h-4.721V21.574z"/>
</svg>
