<?xml version="1.0" encoding="utf-8"?>
<!-- Generator: Adobe Illustrator 16.0.0, SVG Export Plug-In . SVG Version: 6.00 Build 0)  -->
<!DOCTYPE svg PUBLIC "-//W3C//DTD SVG 1.1//EN" "http://www.w3.org/Graphics/SVG/1.1/DTD/svg11.dtd">
<svg version="1.1" id="Capa_1" xmlns="http://www.w3.org/2000/svg" xmlns:xlink="http://www.w3.org/1999/xlink" x="0px" y="0px"
	 width="53px" height="48px" viewBox="0 0 53 48" enable-background="new 0 0 53 48" xml:space="preserve">
<path fill="#FFFFFF" d="M31.08,26.214h-9.197v-1.839h9.197V26.214 M31.08,29.893h-9.197v-1.839h9.197V29.893z M30.16,33.571h-3.679
	v-1.839h3.679V33.571z M19.125,24.375h1.839v7.357h3.679v3.679h7.357V24.375h1.84V37.25H23.723l-4.598-4.599V24.375z M13.606,17.938
	h25.75v12.875h-4.599v-2.759h1.84v-7.357H16.365v7.357h1.839v2.759h-4.598V17.938z M19.125,17.018V11.5h14.714v5.518h-1.84v-3.679
	H20.963v3.679H19.125z"/>
</svg>
